<svg xmlns="http://www.w3.org/2000/svg" viewBox="0 0 75 75"><path d="M37.82,73.3A35.53,35.53,0,0,1,20.4,69.07,36.34,36.34,0,0,1,7.13,57,35,35,0,0,1,2.26,45.92,36.06,36.06,0,0,1,6.43,18.7,35.94,35.94,0,0,1,17.82,7,33.85,33.85,0,0,1,29.34,2.22a37.63,37.63,0,0,1,8.29-1,36.54,36.54,0,0,1,25.12,10,35.65,35.65,0,0,1,11,30.28,35.14,35.14,0,0,1-6.91,17.28A36,36,0,0,1,50.26,71.11,35.19,35.19,0,0,1,37.82,73.3Zm2.82-41.64a4.67,4.67,0,0,1,0-.67c.81-4.71,1.64-9.41,2.42-14.12.33-2,.43-1.63-1.34-1.67a2.81,2.81,0,0,0-.88,0,1.62,1.62,0,0,0-.87.52Q34.3,25,28.68,34.33c-1.24,2-2.47,4.09-3.68,6.15-.73,1.24-.24,2.22,1.17,2.47a3.21,3.21,0,0,0,.56.06h7.88c-.83,5-1.67,9.85-2.45,14.75-.28,1.76-.54,1.59,1.33,1.64a1.91,1.91,0,0,0,2-1c3.36-5.66,6.79-11.27,10.2-16.9,1.52-2.5,3-5,4.56-7.5a1.28,1.28,0,0,0-.09-1.76,2.37,2.37,0,0,0-1.42-.58C46.09,31.63,43.41,31.66,40.64,31.66Z" fill="#d24d11"/></svg>
